<mxfile host="app.diagrams.net" modified="2021-09-15T10:48:32.760Z" agent="5.0 (Macintosh; Intel Mac OS X 10_15_7) AppleWebKit/537.36 (KHTML, like Gecko) Chrome/93.0.4577.63 Safari/537.36" etag="JODaqr8JjXR1OIkYHicd" version="15.2.7" type="github">
  <diagram id="vs3Htdxe9fDbGfsAFpAR" name="第 1 页">
    <mxGraphModel dx="1426" dy="794" grid="1" gridSize="10" guides="1" tooltips="1" connect="1" arrows="1" fold="1" page="1" pageScale="1" pageWidth="827" pageHeight="1169" background="#F4F1DE" math="0" shadow="0">
      <root>
        <mxCell id="0" />
        <mxCell id="1" parent="0" />
        <mxCell id="t8284ufz4f-8p3gNjFrB-1" value="业务 SVC" style="rounded=0;whiteSpace=wrap;html=1;align=left;verticalAlign=top;fontSize=20;fillColor=#d5e8d4;strokeColor=#82b366;" vertex="1" parent="1">
          <mxGeometry x="240" y="240" width="349" height="160" as="geometry" />
        </mxCell>
        <mxCell id="t8284ufz4f-8p3gNjFrB-2" value="" style="endArrow=classic;html=1;fontSize=20;entryX=0;entryY=0.5;entryDx=0;entryDy=0;labelBackgroundColor=#F4F1DE;strokeColor=#E07A5F;fontColor=#393C56;" edge="1" parent="1" target="t8284ufz4f-8p3gNjFrB-7">
          <mxGeometry width="50" height="50" relative="1" as="geometry">
            <mxPoint x="90" y="320" as="sourcePoint" />
            <mxPoint x="190" y="320" as="targetPoint" />
          </mxGeometry>
        </mxCell>
        <mxCell id="t8284ufz4f-8p3gNjFrB-3" value="&lt;font style=&quot;font-size: 20px&quot;&gt;req&lt;/font&gt;" style="edgeLabel;html=1;align=center;verticalAlign=middle;resizable=0;points=[];fontSize=20;labelBackgroundColor=#F4F1DE;fontColor=#393C56;" vertex="1" connectable="0" parent="t8284ufz4f-8p3gNjFrB-2">
          <mxGeometry x="-0.2466" y="-6" relative="1" as="geometry">
            <mxPoint x="19" y="-6" as="offset" />
          </mxGeometry>
        </mxCell>
        <mxCell id="t8284ufz4f-8p3gNjFrB-5" value="业务方请求接口" style="text;html=1;strokeColor=none;fillColor=none;align=center;verticalAlign=middle;whiteSpace=wrap;rounded=0;fontSize=12;fontStyle=2;fontColor=#393C56;" vertex="1" parent="1">
          <mxGeometry x="110" y="330" width="110" height="20" as="geometry" />
        </mxCell>
        <mxCell id="t8284ufz4f-8p3gNjFrB-24" value="" style="edgeStyle=orthogonalEdgeStyle;rounded=0;orthogonalLoop=1;jettySize=auto;html=1;dashed=1;fontSize=12;labelBackgroundColor=#F4F1DE;strokeColor=#E07A5F;fontColor=#393C56;" edge="1" parent="1" source="t8284ufz4f-8p3gNjFrB-6" target="t8284ufz4f-8p3gNjFrB-23">
          <mxGeometry relative="1" as="geometry" />
        </mxCell>
        <mxCell id="t8284ufz4f-8p3gNjFrB-6" value="shebao-common-auth" style="rounded=0;whiteSpace=wrap;html=1;fontSize=12;align=center;verticalAlign=middle;fillColor=#F2CC8F;strokeColor=#E07A5F;fontColor=#393C56;" vertex="1" parent="1">
          <mxGeometry x="470" y="360" width="119" height="40" as="geometry" />
        </mxCell>
        <mxCell id="t8284ufz4f-8p3gNjFrB-7" value="WebMvcConfig过滤" style="shape=process;whiteSpace=wrap;html=1;backgroundOutline=1;fontSize=12;align=center;verticalAlign=middle;fillColor=#fad9d5;strokeColor=#ae4132;" vertex="1" parent="1">
          <mxGeometry x="280" y="300" width="140" height="40" as="geometry" />
        </mxCell>
        <mxCell id="t8284ufz4f-8p3gNjFrB-9" value="" style="curved=1;endArrow=classic;html=1;fontSize=12;entryX=-0.008;entryY=0.622;entryDx=0;entryDy=0;entryPerimeter=0;exitX=0.25;exitY=1;exitDx=0;exitDy=0;dashed=1;labelBackgroundColor=#F4F1DE;strokeColor=#E07A5F;fontColor=#393C56;" edge="1" parent="1" source="t8284ufz4f-8p3gNjFrB-7" target="t8284ufz4f-8p3gNjFrB-6">
          <mxGeometry width="50" height="50" relative="1" as="geometry">
            <mxPoint x="320" y="500" as="sourcePoint" />
            <mxPoint x="370" y="450" as="targetPoint" />
            <Array as="points">
              <mxPoint x="380" y="385" />
            </Array>
          </mxGeometry>
        </mxCell>
        <mxCell id="t8284ufz4f-8p3gNjFrB-20" value="1）读取 JWT Token&lt;br&gt;2）校验&lt;br&gt;3）读取租户信息并设置到 TTL&lt;br&gt;4）放行" style="strokeWidth=2;html=1;shape=mxgraph.flowchart.annotation_2;align=left;labelPosition=right;pointerEvents=1;fontSize=12;fillColor=#F2CC8F;strokeColor=#E07A5F;fontColor=#393C56;" vertex="1" parent="1">
          <mxGeometry x="589" y="595" width="50" height="100" as="geometry" />
        </mxCell>
        <mxCell id="t8284ufz4f-8p3gNjFrB-26" value="" style="edgeStyle=orthogonalEdgeStyle;rounded=0;orthogonalLoop=1;jettySize=auto;html=1;dashed=1;fontSize=12;labelBackgroundColor=#F4F1DE;strokeColor=#E07A5F;fontColor=#393C56;" edge="1" parent="1" source="t8284ufz4f-8p3gNjFrB-23" target="t8284ufz4f-8p3gNjFrB-25">
          <mxGeometry relative="1" as="geometry" />
        </mxCell>
        <mxCell id="t8284ufz4f-8p3gNjFrB-27" value="Y" style="edgeLabel;html=1;align=center;verticalAlign=middle;resizable=0;points=[];fontSize=12;labelBackgroundColor=#F4F1DE;fontColor=#393C56;" vertex="1" connectable="0" parent="t8284ufz4f-8p3gNjFrB-26">
          <mxGeometry x="-0.0105" relative="1" as="geometry">
            <mxPoint as="offset" />
          </mxGeometry>
        </mxCell>
        <mxCell id="t8284ufz4f-8p3gNjFrB-32" style="edgeStyle=orthogonalEdgeStyle;rounded=0;orthogonalLoop=1;jettySize=auto;html=1;exitX=0;exitY=0.5;exitDx=0;exitDy=0;entryX=0.5;entryY=0.5;entryDx=0;entryDy=-15;entryPerimeter=0;dashed=1;fontSize=12;labelBackgroundColor=#F4F1DE;strokeColor=#E07A5F;fontColor=#393C56;" edge="1" parent="1" source="t8284ufz4f-8p3gNjFrB-23" target="t8284ufz4f-8p3gNjFrB-31">
          <mxGeometry relative="1" as="geometry" />
        </mxCell>
        <mxCell id="t8284ufz4f-8p3gNjFrB-33" value="N" style="edgeLabel;html=1;align=center;verticalAlign=middle;resizable=0;points=[];fontSize=12;labelBackgroundColor=#F4F1DE;fontColor=#393C56;" vertex="1" connectable="0" parent="t8284ufz4f-8p3gNjFrB-32">
          <mxGeometry x="-0.3865" relative="1" as="geometry">
            <mxPoint as="offset" />
          </mxGeometry>
        </mxCell>
        <mxCell id="t8284ufz4f-8p3gNjFrB-23" value="&lt;font style=&quot;font-size: 12px&quot;&gt;HandlerMethod？&lt;/font&gt;" style="rhombus;whiteSpace=wrap;html=1;rounded=0;fillColor=#60a917;strokeColor=#2D7600;fontColor=#ffffff;" vertex="1" parent="1">
          <mxGeometry x="466.63" y="460" width="125.75" height="70" as="geometry" />
        </mxCell>
        <mxCell id="t8284ufz4f-8p3gNjFrB-43" style="edgeStyle=orthogonalEdgeStyle;rounded=0;orthogonalLoop=1;jettySize=auto;html=1;entryX=0.5;entryY=0;entryDx=0;entryDy=0;dashed=1;fontSize=12;labelBackgroundColor=#F4F1DE;strokeColor=#E07A5F;fontColor=#393C56;" edge="1" parent="1" source="t8284ufz4f-8p3gNjFrB-25" target="t8284ufz4f-8p3gNjFrB-42">
          <mxGeometry relative="1" as="geometry" />
        </mxCell>
        <mxCell id="t8284ufz4f-8p3gNjFrB-25" value="&lt;meta charset=&quot;utf-8&quot;&gt;&lt;span style=&quot;color: rgb(0, 0, 0); font-family: helvetica; font-size: 12px; font-style: normal; font-weight: 400; letter-spacing: normal; text-align: center; text-indent: 0px; text-transform: none; word-spacing: 0px; background-color: rgb(248, 249, 250); display: inline; float: none;&quot;&gt;Interceptor&lt;/span&gt;" style="shape=process;whiteSpace=wrap;html=1;backgroundOutline=1;rounded=0;fillColor=#fad9d5;strokeColor=#ae4132;" vertex="1" parent="1">
          <mxGeometry x="469.505" y="615" width="120" height="60" as="geometry" />
        </mxCell>
        <mxCell id="t8284ufz4f-8p3gNjFrB-30" value="start" style="html=1;dashed=0;whitespace=wrap;shape=mxgraph.dfd.start;fontSize=12;align=center;verticalAlign=middle;fillColor=#f5f5f5;strokeColor=#666666;fontColor=#333333;" vertex="1" parent="1">
          <mxGeometry x="10" y="305" width="80" height="30" as="geometry" />
        </mxCell>
        <mxCell id="t8284ufz4f-8p3gNjFrB-31" value="end" style="html=1;dashed=0;whitespace=wrap;shape=mxgraph.dfd.start;fontSize=12;align=center;verticalAlign=middle;fillColor=#f5f5f5;strokeColor=#666666;fontColor=#333333;" vertex="1" parent="1">
          <mxGeometry x="10" y="630" width="80" height="30" as="geometry" />
        </mxCell>
        <mxCell id="t8284ufz4f-8p3gNjFrB-34" value="return true" style="text;html=1;strokeColor=none;fillColor=none;align=center;verticalAlign=middle;whiteSpace=wrap;rounded=0;fontSize=12;fontStyle=2;fontColor=#393C56;" vertex="1" parent="1">
          <mxGeometry x="350" y="510" width="70" height="10" as="geometry" />
        </mxCell>
        <mxCell id="t8284ufz4f-8p3gNjFrB-37" value="preHandle" style="text;html=1;strokeColor=none;fillColor=none;align=center;verticalAlign=middle;whiteSpace=wrap;rounded=0;fontSize=12;fontStyle=2;fontColor=#393C56;" vertex="1" parent="1">
          <mxGeometry x="539" y="420" width="50" height="20" as="geometry" />
        </mxCell>
        <mxCell id="t8284ufz4f-8p3gNjFrB-45" value="" style="edgeStyle=orthogonalEdgeStyle;rounded=0;orthogonalLoop=1;jettySize=auto;html=1;dashed=1;fontSize=12;labelBackgroundColor=#F4F1DE;strokeColor=#E07A5F;fontColor=#393C56;" edge="1" parent="1" source="t8284ufz4f-8p3gNjFrB-42" target="t8284ufz4f-8p3gNjFrB-44">
          <mxGeometry relative="1" as="geometry" />
        </mxCell>
        <mxCell id="t8284ufz4f-8p3gNjFrB-46" value="Y" style="edgeLabel;html=1;align=center;verticalAlign=middle;resizable=0;points=[];fontSize=12;labelBackgroundColor=#F4F1DE;fontColor=#393C56;" vertex="1" connectable="0" parent="t8284ufz4f-8p3gNjFrB-45">
          <mxGeometry x="-0.0592" y="-2" relative="1" as="geometry">
            <mxPoint as="offset" />
          </mxGeometry>
        </mxCell>
        <mxCell id="t8284ufz4f-8p3gNjFrB-47" style="edgeStyle=orthogonalEdgeStyle;rounded=0;orthogonalLoop=1;jettySize=auto;html=1;entryX=0.5;entryY=0.5;entryDx=0;entryDy=15;entryPerimeter=0;dashed=1;fontSize=12;labelBackgroundColor=#F4F1DE;strokeColor=#E07A5F;fontColor=#393C56;" edge="1" parent="1" source="t8284ufz4f-8p3gNjFrB-42" target="t8284ufz4f-8p3gNjFrB-31">
          <mxGeometry relative="1" as="geometry" />
        </mxCell>
        <mxCell id="t8284ufz4f-8p3gNjFrB-48" value="N" style="edgeLabel;html=1;align=center;verticalAlign=middle;resizable=0;points=[];fontSize=12;labelBackgroundColor=#F4F1DE;fontColor=#393C56;" vertex="1" connectable="0" parent="t8284ufz4f-8p3gNjFrB-47">
          <mxGeometry x="-0.4769" y="2" relative="1" as="geometry">
            <mxPoint x="-25" y="-2" as="offset" />
          </mxGeometry>
        </mxCell>
        <mxCell id="t8284ufz4f-8p3gNjFrB-42" value="Exception？" style="rhombus;whiteSpace=wrap;html=1;rounded=0;fillColor=#60a917;strokeColor=#2D7600;fontColor=#ffffff;" vertex="1" parent="1">
          <mxGeometry x="466.62" y="750" width="125.75" height="70" as="geometry" />
        </mxCell>
        <mxCell id="t8284ufz4f-8p3gNjFrB-44" value="&lt;span style=&quot;color: rgb(0 , 0 , 0) ; font-family: &amp;#34;helvetica&amp;#34; ; font-size: 12px ; font-style: normal ; font-weight: 400 ; letter-spacing: normal ; text-align: center ; text-indent: 0px ; text-transform: none ; word-spacing: 0px ; background-color: rgb(248 , 249 , 250) ; display: inline ; float: none&quot;&gt;异常流程&lt;/span&gt;" style="shape=process;whiteSpace=wrap;html=1;backgroundOutline=1;rounded=0;fillColor=#fad9d5;strokeColor=#ae4132;" vertex="1" parent="1">
          <mxGeometry x="469.005" y="910" width="120" height="60" as="geometry" />
        </mxCell>
        <mxCell id="t8284ufz4f-8p3gNjFrB-49" value="return super.preHandle(request, response, handler);" style="text;html=1;strokeColor=none;fillColor=none;align=center;verticalAlign=middle;whiteSpace=wrap;rounded=0;fontSize=12;fontStyle=2;fontColor=#393C56;" vertex="1" parent="1">
          <mxGeometry x="180" y="800" width="290" height="20" as="geometry" />
        </mxCell>
      </root>
    </mxGraphModel>
  </diagram>
</mxfile>
